# xmcd
#
# Track frame offsets: 
#        150
#        13306
#        31052
#        42177
#        55509
#        71900
#        88261
#        104123
#        121484
#        132770
#        156260
#        174144
#        188931
#        211208
#        227620
#        240642
#        258363
#        276240
#        298451
#        313157
#
# Disc length: 4398 seconds
#
# Revision: 5
# Processed by: cddbd v1.5.2PL0 Copyright (c) Steve Scherf et al.
# Submitted via: ExactAudioCopyFreeDBPlugin 1.0
#
DISCID=2a112c14
DTITLE=Various Artist - New Country Collection Vol. 4 [CD 1)
DYEAR=2010
DGENRE=Country
TTITLE0=Billy Dean - Thank god I'm a Country Boy
TTITLE1=Bomshel - 19 and crazy
TTITLE2=Alan Jackson - Chattahoochee
TTITLE3=Trick Pony - Ain't wastin' good Whiskey on you
TTITLE4=Zona Jones - Prove me right
TTITLE5=Heidi Newfield - Johnny and June
TTITLE6=Rodney Atkins  - It's America
TTITLE7=Lonestar - With me
TTITLE8=Chris LeDoux - Under this old hat
TTITLE9=Martina McBride - Love's the only house
TTITLE10=Montgomery Gentry - Back when I knew it all
TTITLE11=Steff Nevers - Party at the farm
TTITLE12=The Kinleys - I'm in
TTITLE13=Trent Willmon - Broken in
TTITLE14=Jo Dee Messina - You're not in Kansas anymore
TTITLE15=Kenny Chesney - Young
TTITLE16=Kellie Coffey and Richie McDonald   - Outside looking in
TTITLE17=Ty Herndon  and Stephanie Bentley - Heart half empty
TTITLE18=Ricochet - He left a lot to be desired
TTITLE19=Cledus T. Judd - Waitin' on Obama
EXTD=
EXTT0=
EXTT1=
EXTT2=
EXTT3=
EXTT4=
EXTT5=
EXTT6=
EXTT7=
EXTT8=
EXTT9=
EXTT10=
EXTT11=
EXTT12=
EXTT13=
EXTT14=
EXTT15=
EXTT16=
EXTT17=
EXTT18=
EXTT19=
PLAYORDER=
